<svg id="Layer_1" enable-background="new 0 0 512 512" height="512" viewBox="0 0 512 512" width="512" xmlns="http://www.w3.org/2000/svg"><path d="m512 256-55 14-66-14c0-37.13-15.07-70.8-39.4-95.24l35.4-47.76 50.23-37.88c48.22 48.31 74.77 112.53 74.77 180.88z" fill="#ff8e8e"/><path d="m437.42 436.68c-.12.13-.24.25-.36.38-48.33 48.32-112.63 74.94-181.06 74.94l-10-64 10-57c37.41 0 71.31-15.29 95.79-39.95l53.21 31.95z" fill="#4bb9ec"/><path d="m256 0 12 59-12 62c-37.03 0-70.63 14.99-95.05 39.21l-55.95-36.21-29.68-49.42c48.28-48.1 112.42-74.58 180.68-74.58z" fill="#fff261"/><path d="m160.76 351.59-30.76 53.41-54.88 32.23c-.06-.06-.12-.11-.17-.17-48.308-48.289-74.95-112.618-74.95-181.06l57-13 64 13c0 37.31 15.21 71.14 39.76 95.59z" fill="#90cc1c"/><path d="m437.23 75.12-85.63 85.64c-24.46-24.55-58.29-39.76-95.6-39.76v-121c68.43 0 132.73 26.61 181.05 74.94z" fill="#ffda2d"/><path d="m256 391v121c-68.35 0-132.57-26.55-180.88-74.77l85.64-85.64c24.44 24.34 58.11 39.41 95.24 39.41z" fill="#76e2f8"/><path d="m512 256c0 68.25-26.48 132.4-74.58 180.68l-85.63-85.63c24.22-24.42 39.21-58.02 39.21-95.05z" fill="#ff637b"/><path d="m160.95 160.21c-24.66 24.48-39.95 58.38-39.95 95.79h-121c0-68.43 26.61-132.73 74.94-181.05.12-.13.25-.25.38-.37z" fill="#b9dd39"/><path d="m256.353 256h.387l-.194-.194z" fill="#76e2f8"/><path d="m256 256.353.353-.353h-.353z" fill="#76e2f8"/><path d="m256 255.26v.74h.353l.193-.194z" fill="#76e2f8"/><g fill="#4bb9ec"><path d="m256.353 256h.387l-.194-.194z"/><path d="m256 255.26v.74h.353l.193-.194z"/><path d="m256 256.353.353-.353h-.353z"/></g><path d="m372.79 139.56-25.79 43.44-37.81 20.17c-13.6-13.69-32.42-22.17-53.19-22.17l-8-44 8-46c45.58 0 86.9 18.58 116.79 48.56z" fill="#fdbf00"/><path d="m421 256c0 45.3-18.36 86.4-48.02 116.24l-45.98-33.24-17.62-30.36c13.36-13.55 21.62-32.15 21.62-52.64l44-11z" fill="#e63950"/><path d="m256 331 7 41-7 49c-45.4 0-86.58-18.43-116.44-48.21l27.44-39.79 36.17-23.82c13.56 13.48 32.24 21.82 52.83 21.82z" fill="#4bb9ec"/><path d="m203.36 202.62c-13.8 13.61-22.36 32.51-22.36 53.38l-43 11-47-11c0-45.68 18.66-87.08 48.76-116.98l40.24 27.98z" fill="#90cc1c"/><path d="m256 255.26v1.09l.35-.35h.39z" fill="#596c76"/><path d="m256.74 256h-.39l-.35.35v-1.09z" fill="#596c76"/><path d="m256 91v90c-20.49 0-39.09 8.26-52.64 21.62l-63.6-63.6c29.84-29.66 70.94-48.02 116.24-48.02z" fill="#ffda2d"/><path d="m421 256h-90c0-20.59-8.34-39.27-21.81-52.83l63.6-63.61c29.78 29.86 48.21 71.04 48.21 116.44z" fill="#ff637b"/><path d="m372.98 372.24c-29.9 30.1-71.3 48.76-116.98 48.76v-90c20.87 0 39.77-8.56 53.38-22.36z" fill="#0095ff"/><path d="m203.17 309.18-63.61 63.61c-14.99-14.95-27.13-32.75-35.52-52.51-8.4-19.76-13.04-41.49-13.04-64.28h90c0 20.77 8.48 39.59 22.17 53.18z" fill="#6b0"/></svg>